<svg id="Componente_4_1" data-name="Componente 4 – 1" xmlns="http://www.w3.org/2000/svg" xmlns:xlink="http://www.w3.org/1999/xlink" width="300.339" height="532.038" viewBox="0 0 300.339 532.038">
  <defs>
    <style>
      .cls-1 {
        fill: url(#linear-gradient);
      }

      .cls-2 {
        fill: #fff;
        stroke: #000;
        stroke-width: 2px;
      }

      .cls-3 {
        fill: #030303;
      }

      .cls-4 {
        fill: rgba(0,0,0,0.44);
      }

      .cls-5 {
        fill: #f34040;
      }

      .cls-6 {
        fill: #90894d;
      }

      .cls-7, .cls-9 {
        fill: none;
      }

      .cls-7 {
        stroke: #e1d1d1;
        stroke-width: 4px;
      }

      .cls-10, .cls-8 {
        stroke: none;
      }

      .cls-10 {
        fill: #000;
      }
    </style>
    <linearGradient id="linear-gradient" x1="0.893" y1="0.808" x2="0.074" y2="1.106" gradientUnits="objectBoundingBox">
      <stop offset="0" stop-color="#20ecde"/>
      <stop offset="0.502" stop-color="#497780"/>
      <stop offset="1" stop-color="#9991ce"/>
    </linearGradient>
  </defs>
  <path id="Trazado_28" data-name="Trazado 28" class="cls-1" d="M150.169,0c82.936,0,150.169,75.591,150.169,168.837S170.231,449.329,150.169,449.329,0,262.082,0,168.837,67.233,0,150.169,0Z"/>
  <g id="Componente_3_1" data-name="Componente 3 – 1" transform="translate(208.828 110.427)">
    <g id="Elipse_69" data-name="Elipse 69" class="cls-2">
      <ellipse class="cls-8" cx="33.808" cy="32.369" rx="33.808" ry="32.369"/>
      <ellipse class="cls-9" cx="33.808" cy="32.369" rx="32.808" ry="31.369"/>
    </g>
    <g id="Trazado_42" data-name="Trazado 42" transform="translate(33.808 9.351)">
      <path class="cls-8" d="M 12.58809471130371 27.05347442626953 C 6.198404788970947 27.05347442626953 1.000004768371582 21.2097053527832 1.000004768371582 14.02673530578613 C 1.000004768371582 6.843775272369385 6.198404788970947 1.00000536441803 12.58809471130371 1.00000536441803 C 18.9777946472168 1.00000536441803 24.17619514465332 6.843775272369385 24.17619514465332 14.02673530578613 C 24.17619514465332 21.2097053527832 18.9777946472168 27.05347442626953 12.58809471130371 27.05347442626953 Z"/>
      <path class="cls-10" d="M 12.58809471130371 1.999996185302734 C 6.749794006347656 1.999996185302734 1.999994277954102 7.395164489746094 1.999994277954102 14.02673530578613 C 1.999994277954102 20.65829467773438 6.749794006347656 26.05346488952637 12.58809471130371 26.05346488952637 C 18.42638397216797 26.05346488952637 23.17618560791016 20.65829467773438 23.17618560791016 14.02673530578613 C 23.17618560791016 7.395164489746094 18.42638397216797 1.999996185302734 12.58809471130371 1.999996185302734 M 12.58809471130371 -3.814697265625e-06 C 19.54030418395996 -3.814697265625e-06 25.17618560791016 6.279985427856445 25.17618560791016 14.02673530578613 C 25.17618560791016 21.77348518371582 19.54030418395996 28.05346488952637 12.58809471130371 28.05346488952637 C 5.635885238647461 28.05346488952637 -5.7220458984375e-06 21.77348518371582 -5.7220458984375e-06 14.02673530578613 C -5.7220458984375e-06 6.279985427856445 5.635885238647461 -3.814697265625e-06 12.58809471130371 -3.814697265625e-06 Z"/>
    </g>
  </g>
  <g id="Componente_3_2" data-name="Componente 3 – 2" transform="translate(167.827 121.936)">
    <g id="Elipse_69-2" data-name="Elipse 69" class="cls-2" transform="translate(0 0)">
      <ellipse class="cls-8" cx="33.808" cy="32.369" rx="33.808" ry="32.369"/>
      <ellipse class="cls-9" cx="33.808" cy="32.369" rx="32.808" ry="31.369"/>
    </g>
    <g id="Trazado_42-2" data-name="Trazado 42" class="cls-3" transform="translate(33.808 9.351)">
      <path class="cls-8" d="M 12.58809471130371 27.05347442626953 C 6.198404788970947 27.05347442626953 1.000004768371582 21.2097053527832 1.000004768371582 14.02673530578613 C 1.000004768371582 6.843775272369385 6.198404788970947 1.00000536441803 12.58809471130371 1.00000536441803 C 18.9777946472168 1.00000536441803 24.17619514465332 6.843775272369385 24.17619514465332 14.02673530578613 C 24.17619514465332 21.2097053527832 18.9777946472168 27.05347442626953 12.58809471130371 27.05347442626953 Z"/>
      <path class="cls-10" d="M 12.58809471130371 1.999996185302734 C 6.749794006347656 1.999996185302734 1.999994277954102 7.395164489746094 1.999994277954102 14.02673530578613 C 1.999994277954102 20.65829467773438 6.749794006347656 26.05346488952637 12.58809471130371 26.05346488952637 C 18.42638397216797 26.05346488952637 23.17618560791016 20.65829467773438 23.17618560791016 14.02673530578613 C 23.17618560791016 7.395164489746094 18.42638397216797 1.999996185302734 12.58809471130371 1.999996185302734 M 12.58809471130371 -3.814697265625e-06 C 19.54030418395996 -3.814697265625e-06 25.17618560791016 6.279985427856445 25.17618560791016 14.02673530578613 C 25.17618560791016 21.77348518371582 19.54030418395996 28.05346488952637 12.58809471130371 28.05346488952637 C 5.635885238647461 28.05346488952637 -5.7220458984375e-06 21.77348518371582 -5.7220458984375e-06 14.02673530578613 C -5.7220458984375e-06 6.279985427856445 5.635885238647461 -3.814697265625e-06 12.58809471130371 -3.814697265625e-06 Z"/>
    </g>
  </g>
  <g id="Trazado_41" data-name="Trazado 41" class="cls-4" transform="translate(271.833 255.09) rotate(180)">
    <path class="cls-8" d="M 1.561245560646057 48.03960037231445 C 2.955326795578003 44.49201965332031 6.620258331298828 35.64214706420898 11.81541442871094 26.62149047851562 C 15.72287368774414 19.83673667907715 19.71655654907227 14.28739643096924 23.68552017211914 10.12760829925537 C 28.56279182434082 5.015843391418457 33.39153289794922 2.022302150726318 38.03761291503906 1.230161070823669 C 38.93334579467773 1.077443361282349 39.86516571044922 1.000008106231689 40.80718994140625 1.000008106231689 C 45.34026336669922 1.000008106231689 50.44135665893555 2.775713920593262 55.96878051757812 6.27780818939209 C 60.45621490478516 9.120984077453613 65.21871948242188 13.09406661987305 70.12400054931641 18.08670234680176 C 76.59974670410156 24.67777061462402 81.617431640625 31.32929229736328 83.59194946289062 34.05350875854492 L 1.561245560646057 48.03960037231445 Z"/>
    <path class="cls-10" d="M 40.80717468261719 2 C 39.9212760925293 2 39.04601287841797 2.072650909423828 38.2056884765625 2.215923309326172 C 33.7791633605957 2.970638275146484 29.14028930664062 5.861637115478516 24.41788864135742 10.80863571166992 C 20.5057373046875 14.90682411193848 16.56177520751953 20.38703727722168 12.69552612304688 27.09703826904297 C 8.203781127929688 34.89258193969727 4.860801696777344 42.56545257568359 3.153480529785156 46.75368881225586 L 81.82569122314453 33.3402214050293 C 79.44485473632812 30.14717864990234 74.94712829589844 24.41706657409668 69.37006378173828 18.74622535705566 C 64.52388763427734 13.81857681274414 59.82691192626953 9.902698516845703 55.40962219238281 7.10736083984375 C 50.05417633056641 3.718360900878906 45.14120101928711 2 40.80717468261719 2 M 40.80717468261719 -3.814697265625e-06 C 61.52471542358398 -3.814697265625e-06 85.32929992675781 34.77172470092773 85.32929992675781 34.77172470092773 L 0 49.32021331787109 C 0 49.32021331787109 16.53721618652344 3.881500244140625 37.86953735351562 0.2443733215332031 C 38.83954238891602 0.07899093627929688 39.82024765014648 -3.814697265625e-06 40.80717468261719 -3.814697265625e-06 Z"/>
  </g>
  <g id="Trazado_43" data-name="Trazado 43" class="cls-5" transform="translate(229.101 240.267)">
    <path class="cls-8" d="M 7.505457401275635 12.05113792419434 C 5.160427570343018 12.05113792419434 2.087047338485718 11.30407810211182 -0.3243625462055206 10.14792823791504 C -2.810292482376099 8.956038475036621 -4.294432640075684 7.486748218536377 -4.294432640075684 6.217597961425781 C -4.294432640075684 5.227447986602783 -2.417852640151978 3.387478113174438 1.774537444114685 1.508868098258972 C 5.326607227325439 -0.08281195163726807 9.42869758605957 -1.194461941719055 11.75006771087646 -1.194461941719055 C 12.64056205749512 -1.194461941719055 14.38663387298584 -0.8168917894363403 15.26153469085693 -0.6053541898727417 C 15.64320659637451 -0.196165457367897 16.53504371643066 0.7862426042556763 17.41439819335938 1.944918036460876 C 19.39687728881836 4.557137966156006 19.61090660095215 5.803138256072998 19.61090660095215 6.217597961425781 C 19.61090660095215 7.476448059082031 18.07346725463867 8.943927764892578 15.49823760986328 10.14310836791992 C 13.00913715362549 11.3021879196167 9.871777534484863 12.05113792419434 7.505457401275635 12.05113792419434 Z"/>
    <path class="cls-10" d="M 11.75006771087646 -0.1944618225097656 C 9.64118766784668 -0.1944618225097656 5.825717926025391 0.8288183212280273 2.4715576171875 2.293977737426758 C 0.7243270874023438 3.057198047637939 -0.7595920562744141 3.879457950592041 -1.81976318359375 4.671867847442627 C -3.090717315673828 5.621817588806152 -3.276611328125 6.170846462249756 -3.294240951538086 6.233939647674561 C -3.277915954589844 6.931907653808594 -2.224020004272461 8.128131866455078 0.1079778671264648 9.246208190917969 C 2.394847869873047 10.34265804290771 5.298527717590332 11.05113792419434 7.505457401275635 11.05113792419434 C 9.737277984619141 11.05113792419434 12.7089376449585 10.33887767791748 15.07610702514648 9.236577987670898 C 17.50474739074707 8.105648040771484 18.61090850830078 6.878858089447021 18.61090850830078 6.217597961425781 C 18.61090850830078 6.111348152160645 18.5552978515625 5.10618782043457 16.62931823730469 2.564607620239258 C 15.90299224853516 1.606141090393066 15.16511344909668 0.7694330215454102 14.73327922821045 0.2967100143432617 C 13.75154781341553 0.06863307952880859 12.40655517578125 -0.1944618225097656 11.75006771087646 -0.1944618225097656 M 11.75006771087646 -2.194461822509766 C 13.09581756591797 -2.194461822509766 15.78675746917725 -1.505341529846191 15.78675746917725 -1.505341529846191 C 15.78675746917725 -1.505341529846191 20.61090850830078 3.466308116912842 20.61090850830078 6.217597961425781 C 20.61090850830078 9.991658210754395 12.47131729125977 13.05113792419434 7.505457401275635 13.05113792419434 C 2.539587020874023 13.05113792419434 -5.294431686401367 9.991658210754395 -5.294431686401367 6.217597961425781 C -5.294431686401367 2.443537712097168 6.784207344055176 -2.194461822509766 11.75006771087646 -2.194461822509766 Z"/>
  </g>
  <rect id="Rectángulo_9" data-name="Rectángulo 9" class="cls-6" width="62" height="54" rx="14" transform="translate(119.169 478.038)"/>
  <line id="Línea_13" data-name="Línea 13" class="cls-7" y2="30" transform="translate(150.169 449.038)"/>
</svg>
